<svg xmlns="http://www.w3.org/2000/svg" width="160.966" height="36.917" viewBox="0 0 160.966 36.917"><g transform="translate(1352.145 -407.959)"><path d="M-920.337,428.746a3.348,3.348,0,0,1,1.18-1.047,3.172,3.172,0,0,1,1.5-.368,2.284,2.284,0,0,1,1.367.384,1.743,1.743,0,0,1,.694.983l.224-1.282h.748l-1.025,5.832h-.748l.224-1.292a2.842,2.842,0,0,1-1.041.988,2.977,2.977,0,0,1-1.511.39,2.484,2.484,0,0,1-1.218-.288,2.016,2.016,0,0,1-.812-.817,2.559,2.559,0,0,1-.288-1.244,3.712,3.712,0,0,1,.064-.662,3.861,3.861,0,0,1,.641-1.576m4.508,1.052a1.77,1.77,0,0,0-.5-1.325,1.786,1.786,0,0,0-1.3-.491,2.5,2.5,0,0,0-1.159.278,2.527,2.527,0,0,0-.913.806,3.063,3.063,0,0,0-.5,1.255,3.371,3.371,0,0,0-.053.545,1.774,1.774,0,0,0,.5,1.33,1.775,1.775,0,0,0,1.3.486,2.44,2.44,0,0,0,1.148-.288,2.622,2.622,0,0,0,.929-.822,3.051,3.051,0,0,0,.507-1.239,3.072,3.072,0,0,0,.053-.534" transform="translate(-312.338 -14.035)"/><path d="M-895.711,428.746a3.383,3.383,0,0,1,1.191-1.047,3.25,3.25,0,0,1,1.527-.368,2.454,2.454,0,0,1,1.682.534,1.974,1.974,0,0,1,.646,1.453h-.8a1.3,1.3,0,0,0-.465-.988,1.778,1.778,0,0,0-1.169-.358,2.326,2.326,0,0,0-1.6.614,2.949,2.949,0,0,0-.892,1.747,3.105,3.105,0,0,0-.053.609,1.747,1.747,0,0,0,.465,1.309,1.689,1.689,0,0,0,1.234.454,2.356,2.356,0,0,0,1.3-.358,2.133,2.133,0,0,0,.822-1h.8a3.125,3.125,0,0,1-1.164,1.442,3.244,3.244,0,0,1-1.869.545,2.39,2.39,0,0,1-1.725-.619,2.242,2.242,0,0,1-.646-1.7,3.821,3.821,0,0,1,.064-.683,3.824,3.824,0,0,1,.646-1.587" transform="translate(-330.176 -14.035)"/><path d="M-873.495,428.746A3.384,3.384,0,0,1-872.3,427.7a3.25,3.25,0,0,1,1.527-.368,2.455,2.455,0,0,1,1.682.534,1.974,1.974,0,0,1,.646,1.453h-.8a1.3,1.3,0,0,0-.465-.988,1.777,1.777,0,0,0-1.169-.358,2.326,2.326,0,0,0-1.6.614,2.949,2.949,0,0,0-.892,1.747,3.105,3.105,0,0,0-.053.609,1.747,1.747,0,0,0,.465,1.309,1.689,1.689,0,0,0,1.234.454,2.356,2.356,0,0,0,1.3-.358,2.133,2.133,0,0,0,.822-1h.8a3.124,3.124,0,0,1-1.164,1.442,3.244,3.244,0,0,1-1.869.545,2.39,2.39,0,0,1-1.725-.619,2.242,2.242,0,0,1-.646-1.7,3.815,3.815,0,0,1,.064-.683,3.824,3.824,0,0,1,.646-1.587" transform="translate(-346.272 -14.035)"/><path d="M-850.786,433.039a2.085,2.085,0,0,1-.86-.833,2.534,2.534,0,0,1-.3-1.266,3.738,3.738,0,0,1,.449-1.811,3.413,3.413,0,0,1,1.25-1.314,3.373,3.373,0,0,1,1.784-.486,2.705,2.705,0,0,1,1.282.294,2.123,2.123,0,0,1,.865.833,2.5,2.5,0,0,1,.31,1.266,3.664,3.664,0,0,1-.459,1.816,3.516,3.516,0,0,1-1.255,1.309,3.346,3.346,0,0,1-1.779.486,2.7,2.7,0,0,1-1.282-.294m2.729-.742a2.765,2.765,0,0,0,.94-1.079,3.2,3.2,0,0,0,.336-1.453,1.709,1.709,0,0,0-.507-1.335,1.846,1.846,0,0,0-1.287-.459,2.335,2.335,0,0,0-1.351.406,2.751,2.751,0,0,0-.924,1.079,3.242,3.242,0,0,0-.331,1.453,1.722,1.722,0,0,0,.5,1.33,1.785,1.785,0,0,0,1.26.465,2.383,2.383,0,0,0,1.362-.406" transform="translate(-362.395 -14.035)"/><path d="M-826.547,427.584a2.555,2.555,0,0,1,1.314-.331l-.139.78h-.214a2.225,2.225,0,0,0-1.324.4,2.116,2.116,0,0,0-.769,1.3l-.609,3.461h-.748l1.025-5.832h.748l-.2,1.164a2.533,2.533,0,0,1,.918-.94" transform="translate(-378.997 -13.979)"/><path d="M-815.459,423.521a3.334,3.334,0,0,1,1.186-1.047,3.2,3.2,0,0,1,1.506-.368,2.291,2.291,0,0,1,1.319.374,1.833,1.833,0,0,1,.742.972l.588-3.333h.748l-1.4,7.9h-.748l.235-1.3a3,3,0,0,1-1.057,1,2.928,2.928,0,0,1-1.5.39,2.287,2.287,0,0,1-1.693-.636,2.315,2.315,0,0,1-.636-1.714,3.717,3.717,0,0,1,.064-.662,3.862,3.862,0,0,1,.641-1.576m4.508,1.052a1.77,1.77,0,0,0-.5-1.325,1.786,1.786,0,0,0-1.3-.491,2.494,2.494,0,0,0-1.159.278,2.527,2.527,0,0,0-.913.806,3.064,3.064,0,0,0-.5,1.255,3.371,3.371,0,0,0-.053.545,1.774,1.774,0,0,0,.5,1.33,1.775,1.775,0,0,0,1.3.486,2.44,2.44,0,0,0,1.148-.288,2.622,2.622,0,0,0,.929-.822,3.052,3.052,0,0,0,.507-1.239,3.078,3.078,0,0,0,.053-.534" transform="translate(-388.323 -8.81)"/><path d="M-918.823,457.689a2.939,2.939,0,0,1,1.485-.385,2.311,2.311,0,0,1,1.693.625,2.267,2.267,0,0,1,.636,1.693,3.77,3.77,0,0,1-.064.673,3.9,3.9,0,0,1-.641,1.581,3.383,3.383,0,0,1-1.18,1.057,3.137,3.137,0,0,1-1.5.374,2.285,2.285,0,0,1-1.357-.379,1.824,1.824,0,0,1-.716-.988l-.224,1.282h-.737l1.4-7.9h.737l-.587,3.365a2.959,2.959,0,0,1,1.057-.993m3.044,2.061a1.739,1.739,0,0,0-.5-1.319,1.814,1.814,0,0,0-1.308-.475,2.409,2.409,0,0,0-1.143.288,2.693,2.693,0,0,0-.929.823,3.012,3.012,0,0,0-.513,1.239,3.053,3.053,0,0,0-.053.534,1.768,1.768,0,0,0,.5,1.324,1.784,1.784,0,0,0,1.3.491,2.457,2.457,0,0,0,1.159-.283,2.589,2.589,0,0,0,.919-.823,3.1,3.1,0,0,0,.507-1.255,3.405,3.405,0,0,0,.053-.545" transform="translate(-312.058 -34.312)"/><path d="M-889.889,462.839l-1.025,5.832h-.748l.182-1.025a2.4,2.4,0,0,1-.94.833,2.732,2.732,0,0,1-1.239.288,2.084,2.084,0,0,1-1.442-.486,1.8,1.8,0,0,1-.545-1.415,3.277,3.277,0,0,1,.053-.62l.6-3.407h.737l-.587,3.322a2.976,2.976,0,0,0-.043.513,1.407,1.407,0,0,0,.39,1.074,1.516,1.516,0,0,0,1.084.368,2.1,2.1,0,0,0,1.4-.5,2.519,2.519,0,0,0,.79-1.458l.587-3.322Z" transform="translate(-330.738 -39.761)"/><path d="M-873.456,468.121a1.326,1.326,0,0,1-.555-1.127,1.263,1.263,0,0,1,.01-.192h.726a.941.941,0,0,0,.3.822,1.447,1.447,0,0,0,1,.31,1.852,1.852,0,0,0,1.079-.283.876.876,0,0,0,.406-.753.683.683,0,0,0-.171-.47,1.352,1.352,0,0,0-.422-.315,7.134,7.134,0,0,0-.7-.283,7.53,7.53,0,0,1-.892-.379,1.726,1.726,0,0,1-.577-.491,1.273,1.273,0,0,1-.24-.8,1.4,1.4,0,0,1,.278-.855,1.779,1.779,0,0,1,.764-.577,2.846,2.846,0,0,1,1.106-.2,2.241,2.241,0,0,1,1.415.427,1.363,1.363,0,0,1,.55,1.132,1.764,1.764,0,0,1-.011.224h-.7a.65.65,0,0,0,.011-.139.917.917,0,0,0-.369-.758,1.488,1.488,0,0,0-.945-.288,1.6,1.6,0,0,0-.956.272.856.856,0,0,0-.379.732.759.759,0,0,0,.182.518,1.372,1.372,0,0,0,.448.336q.267.128.715.3a8.133,8.133,0,0,1,.86.374,1.625,1.625,0,0,1,.55.47,1.211,1.211,0,0,1,.224.748,1.408,1.408,0,0,1-.63,1.207,2.754,2.754,0,0,1-1.634.449,2.362,2.362,0,0,1-1.442-.411" transform="translate(-346.412 -39.537)"/><path d="M-853.822,457.053l-1.025,5.832h-.748l1.025-5.832Zm-.5-1.223a.43.43,0,0,1-.128-.326.621.621,0,0,1,.192-.465.636.636,0,0,1,.459-.187.452.452,0,0,1,.326.117.409.409,0,0,1,.123.31.656.656,0,0,1-.192.475.607.607,0,0,1-.448.2.458.458,0,0,1-.331-.123" transform="translate(-359.755 -33.975)"/><path d="M-843.038,462.938a1.808,1.808,0,0,1,.539,1.415,3.3,3.3,0,0,1-.053.62l-.609,3.418h-.737l.587-3.333a3.062,3.062,0,0,0,.043-.523,1.4,1.4,0,0,0-.384-1.068,1.511,1.511,0,0,0-1.079-.363,2.09,2.09,0,0,0-1.442.534,2.638,2.638,0,0,0-.78,1.57v-.032l-.566,3.215h-.748l1.025-5.832h.748l-.182,1a2.521,2.521,0,0,1,.951-.822,2.755,2.755,0,0,1,1.25-.288,2.066,2.066,0,0,1,1.437.486" transform="translate(-365.064 -39.481)"/><path d="M-820.166,462.812a1.941,1.941,0,0,1,.8.774,2.274,2.274,0,0,1,.272,1.122,2.771,2.771,0,0,1-.043.513q-.064.32-.128.577h-4.838a2.454,2.454,0,0,0-.032.384,1.625,1.625,0,0,0,.5,1.271,1.816,1.816,0,0,0,1.266.449,2.36,2.36,0,0,0,1.292-.353,2.067,2.067,0,0,0,.812-.951h.8a3.144,3.144,0,0,1-1.159,1.394,3.224,3.224,0,0,1-1.853.539,2.429,2.429,0,0,1-1.746-.625,2.239,2.239,0,0,1-.657-1.7,3.77,3.77,0,0,1,.064-.673,3.866,3.866,0,0,1,.646-1.592,3.284,3.284,0,0,1,1.2-1.047,3.372,3.372,0,0,1,1.549-.363,2.616,2.616,0,0,1,1.26.283m.31,1.928a1.438,1.438,0,0,0-.481-1.164,1.838,1.838,0,0,0-1.228-.406,2.439,2.439,0,0,0-1.047.235,2.427,2.427,0,0,0-.876.7,2.667,2.667,0,0,0-.513,1.132h4.091a2.945,2.945,0,0,0,.053-.5" transform="translate(-382.003 -39.537)"/><path d="M-802.348,468.121a1.325,1.325,0,0,1-.555-1.127,1.271,1.271,0,0,1,.01-.192h.726a.941.941,0,0,0,.3.822,1.447,1.447,0,0,0,1,.31,1.852,1.852,0,0,0,1.079-.283.876.876,0,0,0,.406-.753.683.683,0,0,0-.171-.47,1.348,1.348,0,0,0-.422-.315,7.127,7.127,0,0,0-.7-.283,7.525,7.525,0,0,1-.892-.379,1.726,1.726,0,0,1-.577-.491,1.273,1.273,0,0,1-.241-.8,1.4,1.4,0,0,1,.278-.855,1.78,1.78,0,0,1,.764-.577,2.847,2.847,0,0,1,1.106-.2,2.241,2.241,0,0,1,1.415.427,1.363,1.363,0,0,1,.55,1.132,1.774,1.774,0,0,1-.01.224h-.7a.65.65,0,0,0,.011-.139.917.917,0,0,0-.369-.758,1.488,1.488,0,0,0-.945-.288,1.6,1.6,0,0,0-.956.272.856.856,0,0,0-.379.732.759.759,0,0,0,.182.518,1.373,1.373,0,0,0,.448.336q.267.128.715.3a8.133,8.133,0,0,1,.86.374,1.627,1.627,0,0,1,.55.47,1.211,1.211,0,0,1,.224.748,1.407,1.407,0,0,1-.63,1.207,2.754,2.754,0,0,1-1.634.449,2.362,2.362,0,0,1-1.442-.411" transform="translate(-397.931 -39.537)"/><path d="M-784.126,468.121a1.326,1.326,0,0,1-.555-1.127,1.273,1.273,0,0,1,.01-.192h.727a.941.941,0,0,0,.3.822,1.448,1.448,0,0,0,1,.31,1.852,1.852,0,0,0,1.079-.283.876.876,0,0,0,.406-.753.683.683,0,0,0-.171-.47,1.349,1.349,0,0,0-.422-.315,7.125,7.125,0,0,0-.7-.283,7.536,7.536,0,0,1-.892-.379,1.726,1.726,0,0,1-.577-.491,1.273,1.273,0,0,1-.24-.8,1.394,1.394,0,0,1,.278-.855,1.776,1.776,0,0,1,.764-.577,2.846,2.846,0,0,1,1.106-.2,2.241,2.241,0,0,1,1.415.427,1.363,1.363,0,0,1,.55,1.132,1.776,1.776,0,0,1-.01.224h-.705a.65.65,0,0,0,.011-.139.917.917,0,0,0-.369-.758,1.488,1.488,0,0,0-.945-.288,1.6,1.6,0,0,0-.956.272.856.856,0,0,0-.379.732.76.76,0,0,0,.182.518,1.377,1.377,0,0,0,.449.336q.267.128.715.3a8.135,8.135,0,0,1,.86.374,1.624,1.624,0,0,1,.55.47,1.211,1.211,0,0,1,.224.748,1.407,1.407,0,0,1-.63,1.207,2.754,2.754,0,0,1-1.634.449,2.362,2.362,0,0,1-1.442-.411" transform="translate(-411.133 -39.537)"/><path d="M-917,497.89a1.736,1.736,0,0,1,.7.972l.224-1.271h.748l-1.047,5.981a3.332,3.332,0,0,1-.593,1.421,3.08,3.08,0,0,1-1.138.956,3.294,3.294,0,0,1-1.474.336,2.694,2.694,0,0,1-1.768-.534,1.843,1.843,0,0,1-.667-1.453h.737a1.433,1.433,0,0,0,.555.972,2.01,2.01,0,0,0,1.26.363,2.281,2.281,0,0,0,1.517-.55,2.469,2.469,0,0,0,.823-1.511l.245-1.442a2.844,2.844,0,0,1-1.041.988,2.957,2.957,0,0,1-1.5.39,2.287,2.287,0,0,1-1.693-.636,2.315,2.315,0,0,1-.636-1.714,3.712,3.712,0,0,1,.064-.662,3.861,3.861,0,0,1,.641-1.576,3.348,3.348,0,0,1,1.18-1.047,3.172,3.172,0,0,1,1.5-.368,2.289,2.289,0,0,1,1.362.384m.465,2.083a1.77,1.77,0,0,0-.5-1.325,1.786,1.786,0,0,0-1.3-.491,2.5,2.5,0,0,0-1.159.278,2.527,2.527,0,0,0-.913.806,3.062,3.062,0,0,0-.5,1.255,3.371,3.371,0,0,0-.053.545,1.774,1.774,0,0,0,.5,1.33,1.775,1.775,0,0,0,1.3.486,2.44,2.44,0,0,0,1.148-.288,2.622,2.622,0,0,0,.929-.822,3.051,3.051,0,0,0,.507-1.239,3.077,3.077,0,0,0,.053-.534" transform="translate(-311.636 -64.878)"/><path d="M-894.32,497.759a2.555,2.555,0,0,1,1.314-.331l-.139.78h-.214a2.225,2.225,0,0,0-1.324.4,2.118,2.118,0,0,0-.769,1.3l-.609,3.461h-.748l1.025-5.832h.748l-.2,1.164a2.532,2.532,0,0,1,.918-.94" transform="translate(-329.895 -64.821)"/><path d="M-882.734,503.215a2.084,2.084,0,0,1-.86-.833,2.531,2.531,0,0,1-.3-1.266,3.738,3.738,0,0,1,.449-1.811,3.413,3.413,0,0,1,1.25-1.314,3.373,3.373,0,0,1,1.784-.486,2.7,2.7,0,0,1,1.282.294,2.123,2.123,0,0,1,.865.833,2.5,2.5,0,0,1,.31,1.266,3.661,3.661,0,0,1-.459,1.816,3.516,3.516,0,0,1-1.255,1.309,3.345,3.345,0,0,1-1.779.486,2.7,2.7,0,0,1-1.282-.294m2.729-.742a2.765,2.765,0,0,0,.94-1.079,3.2,3.2,0,0,0,.336-1.453,1.71,1.71,0,0,0-.507-1.335,1.846,1.846,0,0,0-1.287-.459,2.335,2.335,0,0,0-1.351.406,2.752,2.752,0,0,0-.924,1.079,3.246,3.246,0,0,0-.331,1.453,1.723,1.723,0,0,0,.5,1.33,1.785,1.785,0,0,0,1.26.465,2.383,2.383,0,0,0,1.362-.406" transform="translate(-339.249 -64.878)"/><path d="M-854.064,497.816l-1.025,5.832h-.748l.182-1.025a2.408,2.408,0,0,1-.94.833,2.731,2.731,0,0,1-1.239.288,2.086,2.086,0,0,1-1.442-.486,1.8,1.8,0,0,1-.545-1.415,3.282,3.282,0,0,1,.053-.62l.6-3.407h.737l-.587,3.322a2.976,2.976,0,0,0-.043.513,1.407,1.407,0,0,0,.39,1.074,1.516,1.516,0,0,0,1.084.368,2.1,2.1,0,0,0,1.4-.5,2.52,2.52,0,0,0,.79-1.458l.587-3.322Z" transform="translate(-356.693 -65.102)"/><path d="M-836.694,497.9a2.959,2.959,0,0,1,1.5-.39,2.311,2.311,0,0,1,1.693.625,2.28,2.28,0,0,1,.636,1.7,3.717,3.717,0,0,1-.064.663,3.9,3.9,0,0,1-.641,1.581,3.38,3.38,0,0,1-1.18,1.058,3.137,3.137,0,0,1-1.5.374,2.24,2.24,0,0,1-1.357-.39,1.876,1.876,0,0,1-.716-.977l-.7,4.037h-.748l1.517-8.587h.748l-.224,1.282a2.877,2.877,0,0,1,1.041-.977m3.06,2.056a1.74,1.74,0,0,0-.5-1.319,1.815,1.815,0,0,0-1.308-.475,2.41,2.41,0,0,0-1.143.288,2.693,2.693,0,0,0-.929.823,3.009,3.009,0,0,0-.513,1.239,3.052,3.052,0,0,0-.053.534,1.768,1.768,0,0,0,.5,1.324,1.783,1.783,0,0,0,1.3.491,2.457,2.457,0,0,0,1.159-.283,2.589,2.589,0,0,0,.919-.823,3.1,3.1,0,0,0,.507-1.255,3.405,3.405,0,0,0,.053-.545" transform="translate(-371.216 -64.877)"/><path d="M-1327.271,437.852h-14.681l-2.43,7.024h-7.763l13.256-36.917h8.609l13.256,36.917h-7.816Zm-2.006-5.915-5.334-15.421-5.334,15.421Z" transform="translate(0 -0.001)" fill="#33f"/><path d="M-1192.106,429.224a9.1,9.1,0,0,1,2.007,5.81,9.366,9.366,0,0,1-1.452,5.2,9.677,9.677,0,0,1-4.2,3.512,15.388,15.388,0,0,1-6.5,1.268h-15.9V408.152h15.21a15.781,15.781,0,0,1,6.47,1.215,9.222,9.222,0,0,1,4.119,3.38,8.855,8.855,0,0,1,1.4,4.912,8.4,8.4,0,0,1-1.716,5.387,9.18,9.18,0,0,1-4.568,3.063,8.29,8.29,0,0,1,5.123,3.116m-18.643-5.862h6.76a6.191,6.191,0,0,0,4.067-1.188,4.186,4.186,0,0,0,1.426-3.406,4.266,4.266,0,0,0-1.426-3.433,6.1,6.1,0,0,0-4.067-1.214h-6.76Zm11.646,14.365a4.435,4.435,0,0,0,1.505-3.591,4.625,4.625,0,0,0-1.584-3.723,6.388,6.388,0,0,0-4.278-1.347h-7.288v9.929h7.446a6.328,6.328,0,0,0,4.2-1.268" transform="translate(-97.086 -0.14)" fill="#33f"/><path d="M-1091.552,424.349v6.721h5.064v-1.825h2.165c-.718,5.008-6.021,8.444-10.816,8.291a11.211,11.211,0,0,1-10.8-10.633,11.176,11.176,0,0,1,11.163-11.713,11.135,11.135,0,0,1,7.567,2.952l5.116-5.116a18.378,18.378,0,0,0-14.83-4.945,18.371,18.371,0,0,0-16.142,16.173,18.413,18.413,0,0,0,18.29,20.521c7.2,0,13.638-4.154,15.552-10.358v6.066h4.751V424.349Z" transform="translate(-173.133 0)" fill="#33f"/><rect width="0.356" height="36.591" transform="translate(-1240.465 408.285)"/></g></svg>